<svg width="32" height="32" viewBox="0 0 32 32" fill="none" xmlns="http://www.w3.org/2000/svg">
  <rect width="32" height="32" rx="8" fill="#2ec4b6"/>
  <path d="M16 8C12.686 8 10 10.686 10 14C10 17.314 12.686 20 16 20C19.314 20 22 17.314 22 14C22 10.686 19.314 8 16 8ZM16 18C13.791 18 12 16.209 12 14C12 11.791 13.791 10 16 10C18.209 10 20 11.791 20 14C20 16.209 18.209 18 16 18Z" fill="white"/>
  <path d="M16 12C14.895 12 14 12.895 14 14C14 15.105 14.895 16 16 16C17.105 16 18 15.105 18 14C18 12.895 17.105 12 16 12Z" fill="white"/>
  <rect x="8" y="22" width="16" height="2" rx="1" fill="white"/>
  <rect x="10" y="24" width="12" height="2" rx="1" fill="white"/>
</svg>